<?xml version="1.0" encoding="UTF-8"?>
<svg version="1.1" viewBox="0 0 2048 1576" width="217" height="167" xmlns="http://www.w3.org/2000/svg">
<path transform="translate(0)" d="m0 0h2048v1576h-2048z" fill="#FEFFFE"/>
<path transform="translate(1119,180)" d="m0 0h24l31 7 30 10 27 11 29 14 10 7 10 9 8 10 8 13 6 13 4 17 1 6v14l-4 24-5 17-15 39-14 39-11 31-14 37-9 25-13 37-13 34-25 70-15 40-25 70-13 34-17 48-13 35-9 24-17 49-18 47-11 31-10 29-16 43-14 39-7 13-7 9-11 9-9 9-8 7-28 28-8 7-17 16-12 11-8 7-15 14-9 9-8 7-29 29-8 7-7 7-11 8-12 6-6 1-11-8-4-8-4-25-4-33-13-111-9-78-1-23 6-21 14-38 15-40 6-15 10-29 11-31 12-32 9-25 16-45 18-48 12-34 16-44 9-23 10-29 10-28 11-30 9-24 11-31 15-40 15-41 14-40 13-34 26-74 14-36 9-17 8-10 10-10 15-10 15-7 14-4z" fill="#06027D"/>
<path transform="translate(1466,459)" d="m0 0h12l10 3 13 9 16 15 155 155 7 8 11 11 11 15 6 10 3 8v8l-2 10-7 11-67 67-6 7h-2l-2 4-51 51-8 7-67 67-10 7-10 4-6 1-11-2-14-7-8-8-6-12-2-9 1-14 4-10 9-11 133-133 7-8 21-21 3-4-1-4-20-20-7-8-13-12-13-13-7-8-67-67-2-1v-2l-4-2-27-27-10-13-5-10-2-7v-14l4-10 7-9 13-9z" fill="#06027D"/>
<path transform="translate(511,459)" d="m0 0h14l11 4 10 9 7 10 5 12 1 7-3 12-7 10-9 10-15 15-7 8-139 139 1 4 7 8 11 12 12 11 75 75v2l4 2 13 13 7 8 30 30 12 16 7 14 1 7-3 12-6 10-5 6-10 7-15 5-10-1-12-6-9-7-10-9-185-185-9-12-5-12-1-5v-9l3-9 6-10 11-13 184-184 12-9 12-6z" fill="#06027D"/>
<path transform="translate(1044,353)" d="m0 0 9 2 23 8 3 3-1 6-12 34-8 23-8 22-6 15-15 42-16 45-8 20-25 70-6 16-8 21-7 20-13 37-10 27-6 15-15 42-6 17-18 48-15 43-10 27-13 35-14 39-6 17-8 21-3 4-8-1-24-9-4-4 2-8 13-33 13-36 13-37 14-37 9-25 13-37 15-40 10-27 13-37 14-37 25-70 15-40 15-42 11-31 10-26 20-56 26-70 5-13z" fill="#FEFFFE"/>
<path transform="translate(1118,382)" d="m0 0h7l24 8 5 3-2 9-6 18-6 15-15 40-12 35-6 16-11 30-10 26-11 31-6 17-8 21-6 16-8 22-10 29-9 24-22 60-10 29-10 26-15 41-10 29-9 24-7 19-11 30-11 33-11 27-7 19-7 18-4 2-9-2-20-8-2-2v-8l11-31 11-30 10-26 16-46 11-30 10-26 7-20 17-48 10-26 13-36 17-48 12-31 7-20 17-48 14-36 10-29 9-24 6-17 14-37 16-46 15-40z" fill="#FEFFFE"/>
<path transform="translate(1192,407)" d="m0 0 9 2 17 6 10 3-1 6-12 36-15 43-8 22-8 20-16 45-8 22-4 12-11 28-13 36-7 20-8 23-9 23-15 42-9 26-14 36-8 23-12 34-11 30-6 15-16 45-11 30-11 29-7 20-12 34-4 7-5 1-9-4-18-6-3-3 1-9 12-30 15-44 12-32 14-38 14-40 12-32 10-26 7-20 9-26 15-40 10-28 7-20 11-30 9-24 10-27 10-29 18-48 10-28 11-31 16-43 13-36 7-22z" fill="#FEFFFE"/>
<path transform="translate(1124,219)" d="m0 0 16 1 22 5 18 6 47 18 15 8 10 9 6 7 5 10 2 8 1 17-4 21-11 33-8 19-4-1-15-6-26-9-50-18-46-17-36-12-7-3-1-3 13-38 8-20 9-14 6-7 11-8 9-4z" fill="#FEFFFE"/>
<path transform="translate(785,1103)" d="m0 0 9 2 24 9 34 13 45 16 20 7 24 9 3 3-2 4-14 12-39 39-8 7-8 8-8 7-14 13-8 7-7 7-8 7-18 18-4 1-1-2-8-72-9-76-3-28z" fill="#FEFFFE"/>
</svg>
