<?xml version="1.0" encoding="UTF-8"?>
<svg version="1.1" viewBox="0 0 2048 1344" width="652" height="428" xmlns="http://www.w3.org/2000/svg">
<path transform="translate(1404,740)" d="m0 0h71l2 8 13 81 14 85 8 52 1 4 6-38 27-180 2-11 1-1h68v328h-45l-1-1-1-228-16 108-14 95-4 24-2 2h-47l-2-7-9-56-14-87-12-72v-8h-2l1 5v59l-1 166h-44l-1-46v-264z" fill="#FEFEFE"/> 
<path transform="translate(1237,736)" d="m0 0 20 1 17 4 16 8 10 9 8 10 7 15 4 17 1 12v187l-2 14-4 14-8 16-11 12-10 7-11 5-11 3-8 1h-28l-14-3-13-5-9-6-10-9-8-12-6-16-3-13-1-15v-176l1-14 4-17 5-12 6-10 8-9 14-9 12-5 12-3z" fill="#FEFEFE"/>
<path transform="translate(685,740)" d="m0 0h64l3 7 13 50 15 56 14 53 8 29v-194l1-1h45v328h-52l-3-7-8-30-11-41-36-135-5-19-1-2-1 233-1 1h-45z" fill="#FEFEFE"/>
<path transform="translate(483,740)" d="m0 0h75l2 7 11 69 27 169 12 75v7l-1 1h-50l-2-9-6-38-2-11-62-1-6 40-3 17-1 2h-46v-8l13-81 20-126 15-93 3-19z" fill="#FEFEFE"/>
<path transform="translate(1068,251)" d="m0 0 10 1 11 3 16 6 13 7 7 9 3 6 1 5v11l-4 14-9 24-13 36-11 30-16 44-11 30-9 24-7 20-20 55-4 6-16 15-11 11-8 7-13 12-12 12-7 4-4-1-3-3-3-20-7-60v-14l10-28 11-30 40-110 18-49 14-39 7-18 6-10 10-7z" fill="#FEFEFE"/>
<path transform="translate(1e3 736)" d="m0 0 22 1 19 5 11 6 10 8 10 14 5 11 4 15 2 21v33l-2 1h-39l-8-1-1-37-2-13-4-8-7-6-9-2h-9l-9 3-5 4-5 10-2 11v179l2 16 3 7 5 6 9 3h14l10-4 5-6 3-9 1-8 1-50h49v47l-2 19-4 16-7 14-11 12-7 6-14 7-11 3-7 1h-30l-19-5-13-7-12-11-7-10-6-15-4-21-1-28 1-168 4-20 4-11 7-12 9-10 10-7 11-5 16-4z" fill="#FEFEFE"/>
<path transform="translate(1236,783)" d="m0 0h10l9 3 6 4 4 6 3 10v196l-2 8-6 9-9 5-4 1h-10l-9-3-6-4-5-10-2-9v-191l2-9 6-9 5-4z" fill="#0B0271"/>
<path transform="translate(1183,344)" d="m0 0 8 2 10 9 56 56 6 9v8l-7 8-8 8-1 2h-2l-2 4-35 35-8 7-9 9-4 2-9-1-5-4-2-4v-9l4-6 53-53 1-4-56-56-3-8 2-7 5-5z" fill="#FEFEFE"/>
<path transform="translate(865,344)" d="m0 0 7 1 5 5 3 5v6l-4 6-55 55 2 5 53 53 4 7v6l-4 6-4 3-9 1-6-4-67-67-3-7 1-7 7-9 60-60 6-4z" fill="#FEFEFE"/>
<path transform="translate(517,800)" d="m0 0 2 2 15 100 8 54v7l-1 1h-47l-1-5 7-45 15-102z" fill="#0B0271"/>
<path transform="translate(1041,309)" d="m0 0 9 2 3 2-1 6-11 31-11 30-12 33-10 28-9 24-22 61-8 21-5 1-8-4 1-5 36-99 11-30 16-44 9-24 8-23z" fill="#0B0271"/>
<path transform="translate(1066,319)" d="m0 0 8 1 4 2-1 7-9 24-15 41-13 36-11 30-32 88-4 9-7-1-5-3 3-11 10-27 14-39 11-30 16-44 13-35 6-16 11-31z" fill="#0B0271"/>
<path transform="translate(1091,327)" d="m0 0 11 3 1 3-12 34-10 27-6 17-16 44-11 30-16 44-13 36-4 1-8-3-1-4 11-30 10-28 14-38 23-63 13-36 11-30z" fill="#0B0271"/>
<path transform="translate(1064,265)" d="m0 0h13l15 5 16 7 6 7 1 2v14l-6 17-3 1-34-12-25-9-1-2 7-19 6-8z" fill="#0B0271"/>
<path transform="translate(955,559)" d="m0 0 7 1 29 11 17 6-1 4-8 7-13 13-8 7-14 13h-2l-6-49z" fill="#0B0271"/>
</svg>
